<svg width="55" height="37" viewBox="0 0 55 37" fill="none" xmlns="http://www.w3.org/2000/svg">
<path d="M15.2983 0L6.55664 8.48927H18.8496H24.8596H31.1426C31.1426 8.48927 36.242 8.47858 36.9704 8.48927C37.6989 8.49996 38.564 8.66989 38.564 8.66989L39.9754 9.12145L41.2502 9.66332L42.2519 10.2955L43.3446 11.2889L44.2552 12.3727L45.53 14.7208L45.8942 16.8882L45.8032 19.146L45.6211 20.7716L45.0747 22.3069L44.2552 23.6616L43.4356 24.7453L42.3429 25.8291L41.2502 26.6419L39.7933 27.3643L39.0648 27.545L38.3363 27.7256L37.1526 27.9965H35.7867H32.6907H27.136L18.3943 36.6664L38.0632 36.4858L41.8876 35.8536L45.4389 34.4086L48.535 32.3315L51.1757 29.7124L52.9058 27.0031L54.0896 24.1131L54.8181 20.4104L55.0002 16.7979L54.6359 13.4564L53.4522 10.1149L51.9042 7.31522L49.2634 4.42526L46.1674 2.3481L42.2519 0.63218L37.6079 0H15.2983Z" fill="#A259FF"/>
<path d="M7.64806 30.1642L1.0918 36.6666L14.9328 36.5763L24.4485 27.4097L29.2063 22.8264L31.5853 20.5348L32.7747 19.3889L33.3695 18.816L33.6668 18.5296L34.1463 18.4237L34.6016 18.3334L35.148 18.2431H25.1314L13.3848 30.1642H7.64806Z" fill="#A259FF"/>
<path d="M11.9288 28.0869H0L6.28309 20.6814L14.9337 20.862L17.3013 18.6945L0.364237 18.5139L8.46852 10.6568H31.7797L30.687 10.7471L29.9585 10.9277L29.5943 11.1084L28.5016 11.7406L11.9288 28.0869Z" fill="#A259FF"/>
</svg>
